# xmcd CD database file
#
# Track frame offsets:
#	150
#	12930
#	25148
#	40006
#	54041
#	65580
#	77530
#	90383
#	101466
#	116087
#	131169
#	145036
#	158504
#	168623
#	179711
#	191058
#	203226
#	215373
#	229394
#	245931
#
# Disc length: 3439 seconds
#
# Revision: 6
# Processed by: cddbd v1.5.2PL0 Copyright (c) Steve Scherf et al.
# Submitted via: CDex 1.70beta2
#
DISCID=140d6d14
DTITLE=Various Artist - Goldene Filmschlager 1930-1942 [CD1)
DYEAR=2003
DGENRE=Deutscher Schlager
TTITLE0=Pola Negri - Siehst Du Die Sterne
TTITLE1=Karl Raddatz - Einmal Wirst Du Wieder Bei Mir Sein
TTITLE2=Johannes Heesters - Jede Frau Hat Ein Ssssses Geheimnis
TTITLE3=Lizzi Waldmüller - Du Hast Glück Bei den Frau'n, Bel Ami
TTITLE4=Victor De Kowa - Man Muss Auch Mal 'nen Hupfer Tun
TTITLE5=Carmen Lahrmann - Tanze Und Sing
TTITLE6=Erna Sack - So Verliebt Wie Heut' War Ich Noch nie
TTITLE7=Paul Hörbiger - Das Tu' Ich Alles Nur Für Ursula
TTITLE8=Kate Kühl - Nehmt Euch In Acht Vor Liebe
TTITLE9=Herbert Ernst Groh - Frauen Und Liebe
TTITLE10=Heinz Rühmann - Denn Ein Schneider Der Muss Wandern
TTITLE11=Hans Holt - Hoch Droben Auf Dem Berg
TTITLE12=Zarah Leander - Heut' Abend Lad' Ich Mir Die Liebe Ein
TTITLE13=Rosita Serrano - Die Tante Emilie
TTITLE14=Lilian Harvey and Willy Fritsch - Heut Sollte Sonntag Sein Für Meine Liebe
TTITLE15=Gustav Gründgens - Die Nacht Ist Nicht Allein Zum Schlafen Da
TTITLE16=Zarah Leander - Ein Paar Tränen Werd' Ich Weinen Um Dich
TTITLE17=Kirsten Heiberg - Ja Und Nein
TTITLE18=Else Elster - Lerne Lieben Ohne Zu Weinen
TTITLE19=Willy Fritsch - Warum Hat Die Adelheid Keinen Abend Für Mich Zeit
EXTD=YEAR: 2003
EXTT0=
EXTT1=
EXTT2=
EXTT3=
EXTT4=
EXTT5=
EXTT6=
EXTT7=
EXTT8=
EXTT9=
EXTT10=
EXTT11=
EXTT12=
EXTT13=
EXTT14=
EXTT15=
EXTT16=
EXTT17=
EXTT18=
EXTT19=
PLAYORDER=
